<svg xmlns="http://www.w3.org/2000/svg" width="48" height="48" viewBox="0 0 48 48"><linearGradient id="a" gradientUnits="userSpaceOnUse" x1="24.605" y1="17.995" x2="23.459" y2="19.573" gradientTransform="matrix(1 0 0 -1 0 49)"><stop offset="0" stop-color="#fff"/><stop offset="1" stop-color="#fff" stop-opacity="0"/></linearGradient><path fill="url(#a)" d="M22.291 28.476h3.482v3.48h-3.482z"/><linearGradient id="b" gradientUnits="userSpaceOnUse" x1="24.605" y1="17.995" x2="23.459" y2="19.573" gradientTransform="matrix(1 0 0 -1 0 49)"><stop offset="0" stop-color="#fff"/><stop offset="1" stop-color="#fff" stop-opacity="0"/></linearGradient><path fill="url(#b)" d="M22.291 28.476h3.482v3.48h-3.482z"/><linearGradient id="c" gradientUnits="userSpaceOnUse" x1="24.605" y1="17.995" x2="23.459" y2="19.573" gradientTransform="matrix(1 0 0 -1 0 49)"><stop offset="0" stop-color="#fff"/><stop offset="1" stop-color="#fff" stop-opacity="0"/></linearGradient><path fill="url(#c)" d="M22.291 28.476h3.482v3.48h-3.482z"/><linearGradient id="d" gradientUnits="userSpaceOnUse" x1="24.605" y1="17.995" x2="23.459" y2="19.573" gradientTransform="matrix(1 0 0 -1 0 49)"><stop offset="0" stop-color="#fff"/><stop offset="1" stop-color="#fff" stop-opacity="0"/></linearGradient><path fill="url(#d)" d="M22.291 28.476h3.482v3.48h-3.482z"/><linearGradient id="e" gradientUnits="userSpaceOnUse" x1="24.605" y1="17.995" x2="23.459" y2="19.573" gradientTransform="matrix(1 0 0 -1 0 49)"><stop offset="0" stop-color="#fff"/><stop offset="1" stop-color="#fff" stop-opacity="0"/></linearGradient><path fill="url(#e)" d="M22.291 28.476h3.482v3.48h-3.482z"/><linearGradient id="f" gradientUnits="userSpaceOnUse" x1="24.605" y1="17.995" x2="23.459" y2="19.573" gradientTransform="matrix(1 0 0 -1 0 49)"><stop offset="0" stop-color="#fff"/><stop offset="1" stop-color="#fff" stop-opacity="0"/></linearGradient><path fill="url(#f)" d="M22.291 28.476h3.482v3.48h-3.482z"/><path fill-opacity=".22" d="M47.907 23.989c0 13.243-10.716 23.98-23.933 23.98s-23.933-10.737-23.933-23.98 10.715-23.98 23.933-23.98 23.933 10.736 23.933 23.98z" opacity=".323"/><path fill="#1A1A1A" fill-opacity=".195" d="M47.023 24.104c0 12.919-10.369 23.394-23.158 23.394s-23.158-10.474-23.158-23.394 10.368-23.394 23.158-23.394 23.158 10.473 23.158 23.394z" opacity=".532"/><path fill="#fff" stroke="#000" stroke-width=".406" stroke-opacity=".308" d="M46.103 24.059c0 12.426-9.975 22.499-22.279 22.499s-22.28-10.073-22.28-22.499 9.975-22.499 22.279-22.499c3.076 0 6.007.63 8.672 1.768s5.066 2.786 7.082 4.822 3.647 4.46 4.775 7.152 1.751 5.651 1.751 8.757z"/><path fill="#52E88F" d="M43.473 24.059c0 11.072-8.797 20.047-19.65 20.047s-19.65-8.975-19.65-20.047 8.797-20.047 19.65-20.047 19.65 8.975 19.65 20.047z"/><path fill="#fff" d="M24 20.862c-1.725 0-3.128 1.404-3.128 3.129s1.403 3.129 3.128 3.129 3.129-1.403 3.129-3.129c-.001-1.725-1.404-3.129-3.129-3.129zm17.878 3.515c.024-1.083-.442-2.125-1.384-3.097v-.002c0-.924-.752-1.675-1.676-1.675-.156 0-.311.022-.462.066-.578-.334-1.211-.644-1.884-.925-.449-.187-.958-.374-1.546-.569 1.258-4.554.798-7.91-1.28-9.242-2.177-1.399-5.781-.166-9.646 3.342-3.864-3.507-7.464-4.745-9.647-3.343-1.322.847-2.003 2.523-1.977 4.857-.414.313-.662.801-.662 1.328 0 .665.393 1.255.984 1.523.072.352.162.733.273 1.154-4.309 1.305-6.797 3.409-6.849 5.809-.047 2.157 1.872 4.159 5.405 5.634.451.19.963.377 1.555.572-.167.595-.295 1.125-.392 1.611-.745 3.755-.154 6.464 1.664 7.63 2.189 1.398 5.785.161 9.647-3.345 2.793 2.535 5.459 3.926 7.537 3.928.795 0 1.505-.196 2.111-.584 1.817-1.165 2.407-3.874 1.663-7.629-.073-.369-.168-.775-.287-1.23 4.31-1.306 6.801-3.411 6.853-5.813zm-26.615 13.25c-1.157-.741-1.501-2.939-.918-5.879.086-.43.201-.907.353-1.449 1.605.428 3.361.751 5.23.959.926 1.19 1.883 2.289 2.851 3.272-3.117 2.806-6.05 4.035-7.516 3.097zm0-27.274c1.462-.932 4.399.292 7.516 3.098-.926.941-1.842 1.985-2.726 3.11-1.941.14-3.765.406-5.433.793-.077-.302-.148-.603-.212-.911.408-.313.657-.802.657-1.326 0-.667-.399-1.262-.987-1.528-.001-1.195.225-2.621 1.185-3.236zm-.072 18.332c.321-.928.703-1.879 1.141-2.837.422.75.865 1.489 1.325 2.206.278.435.569.871.88 1.316-1.188-.182-2.308-.411-3.346-.685zm2.467-8.758c-.462.722-.905 1.458-1.32 2.195-.475-1.051-.886-2.097-1.229-3.128 1.123-.259 2.321-.461 3.581-.604-.358.507-.702 1.022-1.032 1.537zm-.403 4.058c.569-1.088 1.182-2.145 1.824-3.148.555-.867 1.176-1.752 1.845-2.638 1.057-.059 2.122-.077 3.202-.052 1.018.022 2.041.08 3.041.174.635.845 1.224 1.69 1.754 2.515.641 1.002 1.255 2.061 1.824 3.148-.576 1.104-1.189 2.166-1.824 3.158-.558.871-1.178 1.757-1.845 2.637-1.057.058-2.121.075-3.203.052-1.016-.021-2.037-.079-3.041-.174-.636-.846-1.224-1.691-1.753-2.515-.635-.989-1.248-2.051-1.824-3.157zm12.054 5.606c.358-.51.704-1.024 1.032-1.537.46-.719.905-1.458 1.325-2.207.481 1.057.897 2.107 1.239 3.136-1.126.26-2.331.464-3.596.608zm1.033-9.664c-.281-.439-.572-.875-.88-1.317 1.179.181 2.296.409 3.334.683-.321.926-.7 1.874-1.134 2.83-.414-.736-.856-1.471-1.32-2.196zm2.947-2.249c-1.606-.428-3.358-.748-5.217-.955-.926-1.19-1.882-2.289-2.851-3.271 3.116-2.806 6.056-4.03 7.516-3.098 1.376.882 1.577 3.604.552 7.324zm-9.126-1.219l-.971-.01-.869.009c.551-.645 1.112-1.258 1.678-1.831.589.598 1.171 1.233 1.737 1.9-.555-.035-1.077-.056-1.575-.068zm-10.717 2.975c.477 1.444 1.118 2.975 1.908 4.56-.72 1.449-1.318 2.86-1.778 4.202-.533-.176-.993-.347-1.4-.516-2.766-1.155-4.399-2.665-4.368-4.04.035-1.586 2.133-3.143 5.638-4.206zm10.391 12.087c.62.013 1.235.014 1.84.002-.551.645-1.112 1.258-1.678 1.832-.587-.595-1.169-1.23-1.738-1.901.564.034 1.078.056 1.576.067zm4.11-.101c1.942-.139 3.77-.406 5.444-.796.109.417.196.787.263 1.125.583 2.939.241 5.137-.917 5.878-1.465.938-4.4-.293-7.517-3.096.927-.94 1.841-1.984 2.727-3.111zm6.592-2.87c-.483-1.467-1.119-2.996-1.895-4.557.718-1.44 1.317-2.852 1.783-4.206.536.178.987.344 1.395.514.479.201.934.417 1.356.644-.023.11-.035.22-.035.332 0 .923.752 1.675 1.675 1.675.26 0 .513-.061.742-.176.43.532.642 1.057.63 1.565-.032 1.586-2.135 3.145-5.651 4.209z"/></svg>