<svg xmlns="http://www.w3.org/2000/svg" width="48" height="48" viewBox="0 0 48 48"><linearGradient id="a" gradientUnits="userSpaceOnUse" x1="24.605" y1="17.995" x2="23.459" y2="19.573" gradientTransform="matrix(1 0 0 -1 0 49)"><stop offset="0" stop-color="#fff"/><stop offset="1" stop-color="#fff" stop-opacity="0"/></linearGradient><path fill="url(#a)" d="M22.291 28.476h3.482v3.48h-3.482z"/><linearGradient id="b" gradientUnits="userSpaceOnUse" x1="24.605" y1="17.995" x2="23.459" y2="19.573" gradientTransform="matrix(1 0 0 -1 0 49)"><stop offset="0" stop-color="#fff"/><stop offset="1" stop-color="#fff" stop-opacity="0"/></linearGradient><path fill="url(#b)" d="M22.291 28.476h3.482v3.48h-3.482z"/><linearGradient id="c" gradientUnits="userSpaceOnUse" x1="24.605" y1="17.995" x2="23.459" y2="19.573" gradientTransform="matrix(1 0 0 -1 0 49)"><stop offset="0" stop-color="#fff"/><stop offset="1" stop-color="#fff" stop-opacity="0"/></linearGradient><path fill="url(#c)" d="M22.291 28.476h3.482v3.48h-3.482z"/><linearGradient id="d" gradientUnits="userSpaceOnUse" x1="24.605" y1="17.995" x2="23.459" y2="19.573" gradientTransform="matrix(1 0 0 -1 0 49)"><stop offset="0" stop-color="#fff"/><stop offset="1" stop-color="#fff" stop-opacity="0"/></linearGradient><path fill="url(#d)" d="M22.291 28.476h3.482v3.48h-3.482z"/><linearGradient id="e" gradientUnits="userSpaceOnUse" x1="24.605" y1="17.995" x2="23.459" y2="19.573" gradientTransform="matrix(1 0 0 -1 0 49)"><stop offset="0" stop-color="#fff"/><stop offset="1" stop-color="#fff" stop-opacity="0"/></linearGradient><path fill="url(#e)" d="M22.291 28.476h3.482v3.48h-3.482z"/><linearGradient id="f" gradientUnits="userSpaceOnUse" x1="24.605" y1="17.995" x2="23.459" y2="19.573" gradientTransform="matrix(1 0 0 -1 0 49)"><stop offset="0" stop-color="#fff"/><stop offset="1" stop-color="#fff" stop-opacity="0"/></linearGradient><path fill="url(#f)" d="M22.291 28.476h3.482v3.48h-3.482z"/><path fill-opacity=".22" d="M47.907 23.989c0 13.243-10.716 23.98-23.933 23.98s-23.933-10.737-23.933-23.98 10.715-23.98 23.933-23.98 23.933 10.736 23.933 23.98z" opacity=".323"/><path fill="#1A1A1A" fill-opacity=".195" d="M47.023 24.104c0 12.919-10.369 23.394-23.158 23.394s-23.158-10.474-23.158-23.394 10.368-23.394 23.158-23.394 23.158 10.473 23.158 23.394z" opacity=".532"/><path fill="#fff" stroke="#000" stroke-width=".406" stroke-opacity=".308" d="M46.103 24.059c0 12.426-9.975 22.499-22.279 22.499s-22.28-10.073-22.28-22.499 9.975-22.499 22.279-22.499c3.076 0 6.007.63 8.672 1.768s5.066 2.786 7.082 4.822 3.647 4.46 4.775 7.152 1.751 5.651 1.751 8.757z"/><path fill="#59f" stroke="#fff" d="M32.077 24c0 4.551-3.616 8.241-8.077 8.241s-8.077-3.69-8.077-8.241 3.616-8.241 8.077-8.241 8.077 3.69 8.077 8.241z"/><radialGradient id="g" cx="-281.049" cy="419.725" r=".033" gradientTransform="matrix(526.129 0 0 -346.691 147892.531 145518.531)" gradientUnits="userSpaceOnUse"><stop offset="0" stop-color="#F06B59"/><stop offset="1" stop-color="#DF2227"/></radialGradient><path fill="url(#g)" d="M42.219 14.993c-5.003-10.065-17.217-14.169-27.281-9.167-3.138 1.56-5.82 3.903-7.787 6.804l8.176 14.172c-1.506-4.786 1.154-9.887 5.94-11.392.842-.265 1.718-.406 2.6-.418"/><radialGradient id="h" cx="-280.8" cy="420.177" r=".051" gradientTransform="matrix(408.858 0 0 -474.334 114828.836 199326.422)" gradientUnits="userSpaceOnUse"><stop offset=".65" stop-color="#4CB749"/><stop offset="1" stop-color="#388B41"/></radialGradient><path fill="url(#h)" d="M7.151 12.631c-6.258 9.335-3.764 21.977 5.572 28.235 2.888 1.936 6.225 3.1 9.691 3.38l8.54-14.536c-3.193 3.87-8.919 4.419-12.789 1.226-1.315-1.084-2.298-2.517-2.837-4.133"/><radialGradient id="i" cx="-281.457" cy="420.232" r=".053" gradientTransform="matrix(328.335 0 0 -439.779 92442.531 184831.266)" gradientUnits="userSpaceOnUse"><stop offset=".6" stop-color="#FCD209"/><stop offset=".7" stop-color="#F7C616"/><stop offset="1" stop-color="#BC821E"/></radialGradient><path fill="url(#i)" d="M22.414 44.246c11.207.847 20.979-7.551 21.826-18.758.273-3.616-.424-7.239-2.021-10.495h-18.352c5.017.023 9.066 4.109 9.043 9.126-.009 2.03-.698 3.998-1.957 5.591"/></svg>