<svg xmlns="http://www.w3.org/2000/svg" width="48" height="48" viewBox="0 0 48 48"><linearGradient id="a" gradientUnits="userSpaceOnUse" x1="24.605" y1="17.995" x2="23.459" y2="19.573" gradientTransform="matrix(1 0 0 -1 0 49)"><stop offset="0" stop-color="#fff"/><stop offset="1" stop-color="#fff" stop-opacity="0"/></linearGradient><path fill="url(#a)" d="M22.291 28.476h3.482v3.48h-3.482z"/><linearGradient id="b" gradientUnits="userSpaceOnUse" x1="24.605" y1="17.995" x2="23.459" y2="19.573" gradientTransform="matrix(1 0 0 -1 0 49)"><stop offset="0" stop-color="#fff"/><stop offset="1" stop-color="#fff" stop-opacity="0"/></linearGradient><path fill="url(#b)" d="M22.291 28.476h3.482v3.48h-3.482z"/><linearGradient id="c" gradientUnits="userSpaceOnUse" x1="24.605" y1="17.995" x2="23.459" y2="19.573" gradientTransform="matrix(1 0 0 -1 0 49)"><stop offset="0" stop-color="#fff"/><stop offset="1" stop-color="#fff" stop-opacity="0"/></linearGradient><path fill="url(#c)" d="M22.291 28.476h3.482v3.48h-3.482z"/><linearGradient id="d" gradientUnits="userSpaceOnUse" x1="24.605" y1="17.995" x2="23.459" y2="19.573" gradientTransform="matrix(1 0 0 -1 0 49)"><stop offset="0" stop-color="#fff"/><stop offset="1" stop-color="#fff" stop-opacity="0"/></linearGradient><path fill="url(#d)" d="M22.291 28.476h3.482v3.48h-3.482z"/><linearGradient id="e" gradientUnits="userSpaceOnUse" x1="24.605" y1="17.995" x2="23.459" y2="19.573" gradientTransform="matrix(1 0 0 -1 0 49)"><stop offset="0" stop-color="#fff"/><stop offset="1" stop-color="#fff" stop-opacity="0"/></linearGradient><path fill="url(#e)" d="M22.291 28.476h3.482v3.48h-3.482z"/><linearGradient id="f" gradientUnits="userSpaceOnUse" x1="24.605" y1="17.995" x2="23.459" y2="19.573" gradientTransform="matrix(1 0 0 -1 0 49)"><stop offset="0" stop-color="#fff"/><stop offset="1" stop-color="#fff" stop-opacity="0"/></linearGradient><path fill="url(#f)" d="M22.291 28.476h3.482v3.48h-3.482z"/><linearGradient id="g" gradientUnits="userSpaceOnUse" x1="24.605" y1="17.995" x2="23.459" y2="19.573" gradientTransform="matrix(1 0 0 -1 0 49)"><stop offset="0" stop-color="#fff"/><stop offset="1" stop-color="#fff" stop-opacity="0"/></linearGradient><path fill="url(#g)" d="M22.291 28.476h3.482v3.48h-3.482z"/><linearGradient id="h" gradientUnits="userSpaceOnUse" x1="24.605" y1="17.995" x2="23.459" y2="19.573" gradientTransform="matrix(1 0 0 -1 0 49)"><stop offset="0" stop-color="#fff"/><stop offset="1" stop-color="#fff" stop-opacity="0"/></linearGradient><path fill="url(#h)" d="M22.291 28.476h3.482v3.48h-3.482z"/><linearGradient id="i" gradientUnits="userSpaceOnUse" x1="24.605" y1="17.995" x2="23.459" y2="19.573" gradientTransform="matrix(1 0 0 -1 0 49)"><stop offset="0" stop-color="#fff"/><stop offset="1" stop-color="#fff" stop-opacity="0"/></linearGradient><path fill="url(#i)" d="M22.291 28.476h3.482v3.48h-3.482z"/><linearGradient id="j" gradientUnits="userSpaceOnUse" x1="24.605" y1="17.995" x2="23.459" y2="19.573" gradientTransform="matrix(1 0 0 -1 0 49)"><stop offset="0" stop-color="#fff"/><stop offset="1" stop-color="#fff" stop-opacity="0"/></linearGradient><path fill="url(#j)" d="M22.291 28.476h3.482v3.48h-3.482z"/><linearGradient id="k" gradientUnits="userSpaceOnUse" x1="24.605" y1="17.995" x2="23.459" y2="19.573" gradientTransform="matrix(1 0 0 -1 0 49)"><stop offset="0" stop-color="#fff"/><stop offset="1" stop-color="#fff" stop-opacity="0"/></linearGradient><path fill="url(#k)" d="M22.291 28.476h3.482v3.48h-3.482z"/><linearGradient id="l" gradientUnits="userSpaceOnUse" x1="24.605" y1="17.995" x2="23.459" y2="19.573" gradientTransform="matrix(1 0 0 -1 0 49)"><stop offset="0" stop-color="#fff"/><stop offset="1" stop-color="#fff" stop-opacity="0"/></linearGradient><path fill="url(#l)" d="M22.291 28.476h3.482v3.48h-3.482z"/><linearGradient id="m" gradientUnits="userSpaceOnUse" x1="24.605" y1="17.995" x2="23.459" y2="19.573" gradientTransform="matrix(1 0 0 -1 0 49)"><stop offset="0" stop-color="#fff"/><stop offset="1" stop-color="#fff" stop-opacity="0"/></linearGradient><path fill="url(#m)" d="M22.291 28.476h3.482v3.48h-3.482z"/><linearGradient id="n" gradientUnits="userSpaceOnUse" x1="24.605" y1="17.995" x2="23.459" y2="19.573" gradientTransform="matrix(1 0 0 -1 0 49)"><stop offset="0" stop-color="#fff"/><stop offset="1" stop-color="#fff" stop-opacity="0"/></linearGradient><path fill="url(#n)" d="M22.291 28.476h3.482v3.48h-3.482z"/><linearGradient id="o" gradientUnits="userSpaceOnUse" x1="24.605" y1="17.995" x2="23.459" y2="19.573" gradientTransform="matrix(1 0 0 -1 0 49)"><stop offset="0" stop-color="#fff"/><stop offset="1" stop-color="#fff" stop-opacity="0"/></linearGradient><path fill="url(#o)" d="M22.291 28.476h3.482v3.48h-3.482z"/><linearGradient id="p" gradientUnits="userSpaceOnUse" x1="24.605" y1="17.995" x2="23.459" y2="19.573" gradientTransform="matrix(1 0 0 -1 0 49)"><stop offset="0" stop-color="#fff"/><stop offset="1" stop-color="#fff" stop-opacity="0"/></linearGradient><path fill="url(#p)" d="M22.291 28.476h3.482v3.48h-3.482z"/><linearGradient id="q" gradientUnits="userSpaceOnUse" x1="24.605" y1="17.995" x2="23.459" y2="19.573" gradientTransform="matrix(1 0 0 -1 0 49)"><stop offset="0" stop-color="#fff"/><stop offset="1" stop-color="#fff" stop-opacity="0"/></linearGradient><path fill="url(#q)" d="M22.291 28.476h3.482v3.48h-3.482z"/><linearGradient id="r" gradientUnits="userSpaceOnUse" x1="24.605" y1="17.995" x2="23.459" y2="19.573" gradientTransform="matrix(1 0 0 -1 0 49)"><stop offset="0" stop-color="#fff"/><stop offset="1" stop-color="#fff" stop-opacity="0"/></linearGradient><path fill="url(#r)" d="M22.291 28.476h3.482v3.48h-3.482z"/><linearGradient id="s" gradientUnits="userSpaceOnUse" x1="24.605" y1="17.995" x2="23.459" y2="19.573" gradientTransform="matrix(1 0 0 -1 0 49)"><stop offset="0" stop-color="#fff"/><stop offset="1" stop-color="#fff" stop-opacity="0"/></linearGradient><path fill="url(#s)" d="M22.291 28.476h3.482v3.48h-3.482z"/><linearGradient id="t" gradientUnits="userSpaceOnUse" x1="24.605" y1="17.995" x2="23.459" y2="19.573" gradientTransform="matrix(1 0 0 -1 0 49)"><stop offset="0" stop-color="#fff"/><stop offset="1" stop-color="#fff" stop-opacity="0"/></linearGradient><path fill="url(#t)" d="M22.291 28.476h3.482v3.48h-3.482z"/><linearGradient id="u" gradientUnits="userSpaceOnUse" x1="24.605" y1="17.995" x2="23.459" y2="19.573" gradientTransform="matrix(1 0 0 -1 0 49)"><stop offset="0" stop-color="#fff"/><stop offset="1" stop-color="#fff" stop-opacity="0"/></linearGradient><path fill="url(#u)" d="M22.291 28.476h3.482v3.48h-3.482z"/><linearGradient id="v" gradientUnits="userSpaceOnUse" x1="24.605" y1="17.995" x2="23.459" y2="19.573" gradientTransform="matrix(1 0 0 -1 0 49)"><stop offset="0" stop-color="#fff"/><stop offset="1" stop-color="#fff" stop-opacity="0"/></linearGradient><path fill="url(#v)" d="M22.291 28.476h3.482v3.48h-3.482z"/><linearGradient id="w" gradientUnits="userSpaceOnUse" x1="24.605" y1="17.995" x2="23.459" y2="19.573" gradientTransform="matrix(1 0 0 -1 0 49)"><stop offset="0" stop-color="#fff"/><stop offset="1" stop-color="#fff" stop-opacity="0"/></linearGradient><path fill="url(#w)" d="M22.291 28.476h3.482v3.48h-3.482z"/><linearGradient id="x" gradientUnits="userSpaceOnUse" x1="24.605" y1="17.995" x2="23.459" y2="19.573" gradientTransform="matrix(1 0 0 -1 0 49)"><stop offset="0" stop-color="#fff"/><stop offset="1" stop-color="#fff" stop-opacity="0"/></linearGradient><path fill="url(#x)" d="M22.291 28.476h3.482v3.48h-3.482z"/><linearGradient id="y" gradientUnits="userSpaceOnUse" x1="24.605" y1="17.995" x2="23.459" y2="19.573" gradientTransform="matrix(1 0 0 -1 0 49)"><stop offset="0" stop-color="#fff"/><stop offset="1" stop-color="#fff" stop-opacity="0"/></linearGradient><path fill="url(#y)" d="M22.291 28.476h3.482v3.48h-3.482z"/><linearGradient id="z" gradientUnits="userSpaceOnUse" x1="24.605" y1="17.995" x2="23.459" y2="19.573" gradientTransform="matrix(1 0 0 -1 0 49)"><stop offset="0" stop-color="#fff"/><stop offset="1" stop-color="#fff" stop-opacity="0"/></linearGradient><path fill="url(#z)" d="M22.291 28.476h3.482v3.48h-3.482z"/><linearGradient id="A" gradientUnits="userSpaceOnUse" x1="24.605" y1="17.995" x2="23.459" y2="19.573" gradientTransform="matrix(1 0 0 -1 0 49)"><stop offset="0" stop-color="#fff"/><stop offset="1" stop-color="#fff" stop-opacity="0"/></linearGradient><path fill="url(#A)" d="M22.291 28.476h3.482v3.48h-3.482z"/><linearGradient id="B" gradientUnits="userSpaceOnUse" x1="24.605" y1="17.995" x2="23.459" y2="19.573" gradientTransform="matrix(1 0 0 -1 0 49)"><stop offset="0" stop-color="#fff"/><stop offset="1" stop-color="#fff" stop-opacity="0"/></linearGradient><path fill="url(#B)" d="M22.291 28.476h3.482v3.48h-3.482z"/><linearGradient id="C" gradientUnits="userSpaceOnUse" x1="24.605" y1="17.995" x2="23.459" y2="19.573" gradientTransform="matrix(1 0 0 -1 0 49)"><stop offset="0" stop-color="#fff"/><stop offset="1" stop-color="#fff" stop-opacity="0"/></linearGradient><path fill="url(#C)" d="M22.291 28.476h3.482v3.48h-3.482z"/><linearGradient id="D" gradientUnits="userSpaceOnUse" x1="24.605" y1="17.995" x2="23.459" y2="19.573" gradientTransform="matrix(1 0 0 -1 0 49)"><stop offset="0" stop-color="#fff"/><stop offset="1" stop-color="#fff" stop-opacity="0"/></linearGradient><path fill="url(#D)" d="M22.291 28.476h3.482v3.48h-3.482z"/><linearGradient id="E" gradientUnits="userSpaceOnUse" x1="24.605" y1="17.995" x2="23.459" y2="19.573" gradientTransform="matrix(1 0 0 -1 0 49)"><stop offset="0" stop-color="#fff"/><stop offset="1" stop-color="#fff" stop-opacity="0"/></linearGradient><path fill="url(#E)" d="M22.291 28.476h3.482v3.48h-3.482z"/><linearGradient id="F" gradientUnits="userSpaceOnUse" x1="24.605" y1="17.995" x2="23.459" y2="19.573" gradientTransform="matrix(1 0 0 -1 0 49)"><stop offset="0" stop-color="#fff"/><stop offset="1" stop-color="#fff" stop-opacity="0"/></linearGradient><path fill="url(#F)" d="M22.291 28.476h3.482v3.48h-3.482z"/><linearGradient id="G" gradientUnits="userSpaceOnUse" x1="24.605" y1="17.995" x2="23.459" y2="19.573" gradientTransform="matrix(1 0 0 -1 0 49)"><stop offset="0" stop-color="#fff"/><stop offset="1" stop-color="#fff" stop-opacity="0"/></linearGradient><path fill="url(#G)" d="M22.291 28.476h3.482v3.48h-3.482z"/><linearGradient id="H" gradientUnits="userSpaceOnUse" x1="24.605" y1="17.995" x2="23.459" y2="19.573" gradientTransform="matrix(1 0 0 -1 0 49)"><stop offset="0" stop-color="#fff"/><stop offset="1" stop-color="#fff" stop-opacity="0"/></linearGradient><path fill="url(#H)" d="M22.291 28.476h3.482v3.48h-3.482z"/><linearGradient id="I" gradientUnits="userSpaceOnUse" x1="24.605" y1="17.995" x2="23.459" y2="19.573" gradientTransform="matrix(1 0 0 -1 0 49)"><stop offset="0" stop-color="#fff"/><stop offset="1" stop-color="#fff" stop-opacity="0"/></linearGradient><path fill="url(#I)" d="M22.291 28.476h3.482v3.48h-3.482z"/><linearGradient id="J" gradientUnits="userSpaceOnUse" x1="24.605" y1="17.995" x2="23.459" y2="19.573" gradientTransform="matrix(1 0 0 -1 0 49)"><stop offset="0" stop-color="#fff"/><stop offset="1" stop-color="#fff" stop-opacity="0"/></linearGradient><path fill="url(#J)" d="M22.291 28.476h3.482v3.48h-3.482z"/><linearGradient id="K" gradientUnits="userSpaceOnUse" x1="24.605" y1="17.995" x2="23.459" y2="19.573" gradientTransform="matrix(1 0 0 -1 0 49)"><stop offset="0" stop-color="#fff"/><stop offset="1" stop-color="#fff" stop-opacity="0"/></linearGradient><path fill="url(#K)" d="M22.291 28.476h3.482v3.48h-3.482z"/><linearGradient id="L" gradientUnits="userSpaceOnUse" x1="24.605" y1="17.995" x2="23.459" y2="19.573" gradientTransform="matrix(1 0 0 -1 0 49)"><stop offset="0" stop-color="#fff"/><stop offset="1" stop-color="#fff" stop-opacity="0"/></linearGradient><path fill="url(#L)" d="M22.291 28.476h3.482v3.48h-3.482z"/><linearGradient id="M" gradientUnits="userSpaceOnUse" x1="24.605" y1="17.995" x2="23.459" y2="19.573" gradientTransform="matrix(1 0 0 -1 0 49)"><stop offset="0" stop-color="#fff"/><stop offset="1" stop-color="#fff" stop-opacity="0"/></linearGradient><path fill="url(#M)" d="M22.291 28.476h3.482v3.48h-3.482z"/><linearGradient id="N" gradientUnits="userSpaceOnUse" x1="24.605" y1="17.995" x2="23.459" y2="19.573" gradientTransform="matrix(1 0 0 -1 0 49)"><stop offset="0" stop-color="#fff"/><stop offset="1" stop-color="#fff" stop-opacity="0"/></linearGradient><path fill="url(#N)" d="M22.291 28.476h3.482v3.48h-3.482z"/><linearGradient id="O" gradientUnits="userSpaceOnUse" x1="24.605" y1="17.995" x2="23.459" y2="19.573" gradientTransform="matrix(1 0 0 -1 0 49)"><stop offset="0" stop-color="#fff"/><stop offset="1" stop-color="#fff" stop-opacity="0"/></linearGradient><path fill="url(#O)" d="M22.291 28.476h3.482v3.48h-3.482z"/><linearGradient id="P" gradientUnits="userSpaceOnUse" x1="24.605" y1="17.995" x2="23.459" y2="19.573" gradientTransform="matrix(1 0 0 -1 0 49)"><stop offset="0" stop-color="#fff"/><stop offset="1" stop-color="#fff" stop-opacity="0"/></linearGradient><path fill="url(#P)" d="M22.291 28.476h3.482v3.48h-3.482z"/><linearGradient id="Q" gradientUnits="userSpaceOnUse" x1="24.605" y1="17.995" x2="23.459" y2="19.573" gradientTransform="matrix(1 0 0 -1 0 49)"><stop offset="0" stop-color="#fff"/><stop offset="1" stop-color="#fff" stop-opacity="0"/></linearGradient><path fill="url(#Q)" d="M22.291 28.476h3.482v3.48h-3.482z"/><linearGradient id="R" gradientUnits="userSpaceOnUse" x1="24.605" y1="17.995" x2="23.459" y2="19.573" gradientTransform="matrix(1 0 0 -1 0 49)"><stop offset="0" stop-color="#fff"/><stop offset="1" stop-color="#fff" stop-opacity="0"/></linearGradient><path fill="url(#R)" d="M22.291 28.476h3.482v3.48h-3.482z"/><linearGradient id="S" gradientUnits="userSpaceOnUse" x1="24.605" y1="17.995" x2="23.459" y2="19.573" gradientTransform="matrix(1 0 0 -1 0 49)"><stop offset="0" stop-color="#fff"/><stop offset="1" stop-color="#fff" stop-opacity="0"/></linearGradient><path fill="url(#S)" d="M22.291 28.476h3.482v3.48h-3.482z"/><linearGradient id="T" gradientUnits="userSpaceOnUse" x1="24.605" y1="17.995" x2="23.459" y2="19.573" gradientTransform="matrix(1 0 0 -1 0 49)"><stop offset="0" stop-color="#fff"/><stop offset="1" stop-color="#fff" stop-opacity="0"/></linearGradient><path fill="url(#T)" d="M22.291 28.476h3.482v3.48h-3.482z"/><linearGradient id="U" gradientUnits="userSpaceOnUse" x1="24.605" y1="17.995" x2="23.459" y2="19.573" gradientTransform="matrix(1 0 0 -1 0 49)"><stop offset="0" stop-color="#fff"/><stop offset="1" stop-color="#fff" stop-opacity="0"/></linearGradient><path fill="url(#U)" d="M22.291 28.476h3.482v3.48h-3.482z"/><linearGradient id="V" gradientUnits="userSpaceOnUse" x1="24.605" y1="17.995" x2="23.459" y2="19.573" gradientTransform="matrix(1 0 0 -1 0 49)"><stop offset="0" stop-color="#fff"/><stop offset="1" stop-color="#fff" stop-opacity="0"/></linearGradient><path fill="url(#V)" d="M22.291 28.476h3.482v3.48h-3.482z"/><linearGradient id="W" gradientUnits="userSpaceOnUse" x1="24.605" y1="17.995" x2="23.459" y2="19.573" gradientTransform="matrix(1 0 0 -1 0 49)"><stop offset="0" stop-color="#fff"/><stop offset="1" stop-color="#fff" stop-opacity="0"/></linearGradient><path fill="url(#W)" d="M22.291 28.476h3.482v3.48h-3.482z"/><linearGradient id="X" gradientUnits="userSpaceOnUse" x1="24.605" y1="17.995" x2="23.459" y2="19.573" gradientTransform="matrix(1 0 0 -1 0 49)"><stop offset="0" stop-color="#fff"/><stop offset="1" stop-color="#fff" stop-opacity="0"/></linearGradient><path fill="url(#X)" d="M22.291 28.476h3.482v3.48h-3.482z"/><linearGradient id="Y" gradientUnits="userSpaceOnUse" x1="24.605" y1="17.995" x2="23.459" y2="19.573" gradientTransform="matrix(1 0 0 -1 0 49)"><stop offset="0" stop-color="#fff"/><stop offset="1" stop-color="#fff" stop-opacity="0"/></linearGradient><path fill="url(#Y)" d="M22.291 28.476h3.482v3.48h-3.482z"/><linearGradient id="Z" gradientUnits="userSpaceOnUse" x1="24.605" y1="17.995" x2="23.459" y2="19.573" gradientTransform="matrix(1 0 0 -1 0 49)"><stop offset="0" stop-color="#fff"/><stop offset="1" stop-color="#fff" stop-opacity="0"/></linearGradient><path fill="url(#Z)" d="M22.291 28.476h3.482v3.48h-3.482z"/><linearGradient id="aa" gradientUnits="userSpaceOnUse" x1="24.605" y1="17.995" x2="23.459" y2="19.573" gradientTransform="matrix(1 0 0 -1 0 49)"><stop offset="0" stop-color="#fff"/><stop offset="1" stop-color="#fff" stop-opacity="0"/></linearGradient><path fill="url(#aa)" d="M22.291 28.476h3.482v3.48h-3.482z"/><linearGradient id="ab" gradientUnits="userSpaceOnUse" x1="24.605" y1="17.995" x2="23.459" y2="19.573" gradientTransform="matrix(1 0 0 -1 0 49)"><stop offset="0" stop-color="#fff"/><stop offset="1" stop-color="#fff" stop-opacity="0"/></linearGradient><path fill="url(#ab)" d="M22.291 28.476h3.482v3.48h-3.482z"/><linearGradient id="ac" gradientUnits="userSpaceOnUse" x1="24.605" y1="17.995" x2="23.459" y2="19.573" gradientTransform="matrix(1 0 0 -1 0 49)"><stop offset="0" stop-color="#fff"/><stop offset="1" stop-color="#fff" stop-opacity="0"/></linearGradient><path fill="url(#ac)" d="M22.291 28.476h3.482v3.48h-3.482z"/><linearGradient id="ad" gradientUnits="userSpaceOnUse" x1="24.605" y1="17.995" x2="23.459" y2="19.573" gradientTransform="matrix(1 0 0 -1 0 49)"><stop offset="0" stop-color="#fff"/><stop offset="1" stop-color="#fff" stop-opacity="0"/></linearGradient><path fill="url(#ad)" d="M22.291 28.476h3.482v3.48h-3.482z"/><linearGradient id="ae" gradientUnits="userSpaceOnUse" x1="24.605" y1="17.995" x2="23.459" y2="19.573" gradientTransform="matrix(1 0 0 -1 0 49)"><stop offset="0" stop-color="#fff"/><stop offset="1" stop-color="#fff" stop-opacity="0"/></linearGradient><path fill="url(#ae)" d="M22.291 28.476h3.482v3.48h-3.482z"/><linearGradient id="af" gradientUnits="userSpaceOnUse" x1="24.605" y1="17.995" x2="23.459" y2="19.573" gradientTransform="matrix(1 0 0 -1 0 49)"><stop offset="0" stop-color="#fff"/><stop offset="1" stop-color="#fff" stop-opacity="0"/></linearGradient><path fill="url(#af)" d="M22.291 28.476h3.482v3.48h-3.482z"/><linearGradient id="ag" gradientUnits="userSpaceOnUse" x1="24.605" y1="17.995" x2="23.459" y2="19.573" gradientTransform="matrix(1 0 0 -1 0 49)"><stop offset="0" stop-color="#fff"/><stop offset="1" stop-color="#fff" stop-opacity="0"/></linearGradient><path fill="url(#ag)" d="M22.291 28.476h3.482v3.48h-3.482z"/><linearGradient id="ah" gradientUnits="userSpaceOnUse" x1="24.605" y1="17.995" x2="23.459" y2="19.573" gradientTransform="matrix(1 0 0 -1 0 49)"><stop offset="0" stop-color="#fff"/><stop offset="1" stop-color="#fff" stop-opacity="0"/></linearGradient><path fill="url(#ah)" d="M22.291 28.476h3.482v3.48h-3.482z"/><linearGradient id="ai" gradientUnits="userSpaceOnUse" x1="24.605" y1="17.995" x2="23.459" y2="19.573" gradientTransform="matrix(1 0 0 -1 0 49)"><stop offset="0" stop-color="#fff"/><stop offset="1" stop-color="#fff" stop-opacity="0"/></linearGradient><path fill="url(#ai)" d="M22.291 28.476h3.482v3.48h-3.482z"/><linearGradient id="aj" gradientUnits="userSpaceOnUse" x1="24.605" y1="17.995" x2="23.459" y2="19.573" gradientTransform="matrix(1 0 0 -1 0 49)"><stop offset="0" stop-color="#fff"/><stop offset="1" stop-color="#fff" stop-opacity="0"/></linearGradient><path fill="url(#aj)" d="M22.291 28.476h3.482v3.48h-3.482z"/><linearGradient id="ak" gradientUnits="userSpaceOnUse" x1="24.605" y1="17.995" x2="23.459" y2="19.573" gradientTransform="matrix(1 0 0 -1 0 49)"><stop offset="0" stop-color="#fff"/><stop offset="1" stop-color="#fff" stop-opacity="0"/></linearGradient><path fill="url(#ak)" d="M22.291 28.476h3.482v3.48h-3.482z"/><linearGradient id="al" gradientUnits="userSpaceOnUse" x1="24.605" y1="17.995" x2="23.459" y2="19.573" gradientTransform="matrix(1 0 0 -1 0 49)"><stop offset="0" stop-color="#fff"/><stop offset="1" stop-color="#fff" stop-opacity="0"/></linearGradient><path fill="url(#al)" d="M22.291 28.476h3.482v3.48h-3.482z"/><path fill-opacity=".22" d="M47.907 23.989c0 13.243-10.716 23.98-23.933 23.98s-23.933-10.737-23.933-23.98 10.715-23.98 23.933-23.98 23.933 10.736 23.933 23.98z" opacity=".323"/><path fill="#1A1A1A" fill-opacity=".195" d="M47.023 24.104c0 12.919-10.369 23.394-23.158 23.394s-23.158-10.474-23.158-23.394 10.368-23.394 23.158-23.394 23.158 10.473 23.158 23.394z" opacity=".532"/><path fill="#fff" stroke="#000" stroke-width=".4" stroke-opacity=".308" d="M46.103 24.059c0 12.426-9.975 22.499-22.279 22.499s-22.28-10.073-22.28-22.499c0-12.426 9.975-22.499 22.279-22.499 3.076 0 6.007.63 8.672 1.768s5.066 2.786 7.082 4.822 3.647 4.46 4.775 7.152c1.127 2.691 1.751 5.651 1.751 8.757z"/><g fill="#8D5FD3"><path fill-rule="evenodd" clip-rule="evenodd" d="M23.865 4.018c-10.768 0-19.5 8.951-19.5 19.994 0 8.834 5.587 16.328 13.335 18.972.974.185 1.332-.434 1.332-.962 0-.477-.018-2.052-.026-3.722-5.425 1.21-6.57-2.359-6.57-2.359-.887-2.311-2.165-2.925-2.165-2.925-1.769-1.241.133-1.215.133-1.215 1.958.141 2.989 2.061 2.989 2.061 1.739 3.056 4.562 2.173 5.675 1.662.175-1.292.68-2.174 1.238-2.674-4.331-.505-8.885-2.22-8.885-9.881 0-2.183.762-3.966 2.009-5.367-.202-.504-.87-2.537.189-5.291 0 0 1.638-.537 5.364 2.05 1.556-.443 3.224-.665 4.881-.673 1.657.008 3.327.23 4.885.673 3.722-2.587 5.357-2.05 5.357-2.05 1.061 2.754.394 4.788.191 5.291 1.25 1.4 2.007 3.184 2.007 5.367 0 7.679-4.562 9.37-8.904 9.865.699.62 1.323 1.837 1.323 3.702 0 2.675-.022 4.828-.022 5.487 0 .532.351 1.156 1.339.959 7.744-2.647 13.324-10.139 13.324-18.969.001-11.044-8.73-19.995-19.499-19.995z"/><path d="M11.751 32.725c-.043.1-.196.129-.334.061-.142-.065-.221-.201-.175-.3.042-.102.195-.131.336-.062.141.064.222.201.173.301zm-.24-.183 1.03 1.086c-.093.088-.275.047-.398-.092-.128-.139-.151-.326-.057-.415.096-.088.272-.047.4.092.127.14.152.325.055.415zm-.186-.205.954 1.356c-.12.085-.315.005-.436-.172-.12-.178-.12-.391.003-.477.121-.085.313-.008.436.168.119.181.119.394-.003.481zm0 0 1.054 1.113c-.107.121-.335.088-.501-.077-.171-.161-.218-.39-.111-.511.108-.121.337-.087.505.077.169.161.221.391.107.511zm0 0 1.453.646c-.047.157-.266.228-.487.161-.221-.069-.365-.252-.32-.41.046-.158.266-.232.488-.161.22.068.365.25.319.41zm0 0 1.596.119c.005.165-.182.302-.414.305-.233.005-.422-.128-.424-.29 0-.167.183-.302.416-.306.232-.005.422.128.422.291zm0 0 1.485-.259c.028.161-.133.326-.364.37-.226.043-.436-.057-.465-.216-.028-.165.136-.33.362-.373.231-.041.437.056.467.219zm0 0"/></g></svg>