<svg xmlns="http://www.w3.org/2000/svg" width="48" height="48" viewBox="0 0 48 48"><linearGradient id="a" gradientUnits="userSpaceOnUse" x1="-119.395" y1="828.005" x2="-120.541" y2="826.427" gradientTransform="translate(144 -797)"><stop offset="0" stop-color="#fff"/><stop offset="1" stop-color="#fff" stop-opacity="0"/></linearGradient><path fill="url(#a)" d="M22.291 28.476h3.482v3.48h-3.482z"/><linearGradient id="b" gradientUnits="userSpaceOnUse" x1="-119.395" y1="828.005" x2="-120.541" y2="826.427" gradientTransform="translate(144 -797)"><stop offset="0" stop-color="#fff"/><stop offset="1" stop-color="#fff" stop-opacity="0"/></linearGradient><path fill="url(#b)" d="M22.291 28.476h3.482v3.48h-3.482z"/><linearGradient id="c" gradientUnits="userSpaceOnUse" x1="-119.395" y1="828.005" x2="-120.541" y2="826.427" gradientTransform="translate(144 -797)"><stop offset="0" stop-color="#fff"/><stop offset="1" stop-color="#fff" stop-opacity="0"/></linearGradient><path fill="url(#c)" d="M22.291 28.476h3.482v3.48h-3.482z"/><linearGradient id="d" gradientUnits="userSpaceOnUse" x1="-119.395" y1="828.005" x2="-120.541" y2="826.427" gradientTransform="translate(144 -797)"><stop offset="0" stop-color="#fff"/><stop offset="1" stop-color="#fff" stop-opacity="0"/></linearGradient><path fill="url(#d)" d="M22.291 28.476h3.482v3.48h-3.482z"/><linearGradient id="e" gradientUnits="userSpaceOnUse" x1="-119.395" y1="828.005" x2="-120.541" y2="826.427" gradientTransform="translate(144 -797)"><stop offset="0" stop-color="#fff"/><stop offset="1" stop-color="#fff" stop-opacity="0"/></linearGradient><path fill="url(#e)" d="M22.291 28.476h3.482v3.48h-3.482z"/><linearGradient id="f" gradientUnits="userSpaceOnUse" x1="-119.395" y1="828.005" x2="-120.541" y2="826.427" gradientTransform="translate(144 -797)"><stop offset="0" stop-color="#fff"/><stop offset="1" stop-color="#fff" stop-opacity="0"/></linearGradient><path fill="url(#f)" d="M22.291 28.476h3.482v3.48h-3.482z"/><path fill-opacity=".22" d="M47.907 23.989c0 13.243-10.716 23.98-23.933 23.98s-23.933-10.737-23.933-23.98 10.715-23.98 23.933-23.98 23.933 10.736 23.933 23.98z" opacity=".323"/><path fill="#1A1A1A" fill-opacity=".195" d="M47.023 24.104c0 12.919-10.369 23.394-23.158 23.394s-23.158-10.474-23.158-23.394 10.368-23.394 23.158-23.394 23.158 10.473 23.158 23.394z" opacity=".532"/><path fill="#fff" stroke="#000" stroke-width=".406" stroke-opacity=".308" d="M46.103 24.059c0 12.426-9.975 22.499-22.279 22.499s-22.28-10.073-22.28-22.499 9.975-22.499 22.279-22.499c3.076 0 6.007.63 8.672 1.768s5.066 2.786 7.082 4.822 3.647 4.46 4.775 7.152 1.751 5.651 1.751 8.757z"/><path fill="#27384D" d="M43.473 24.059c0 11.072-8.797 20.047-19.65 20.047s-19.65-8.975-19.65-20.047 8.797-20.047 19.65-20.047 19.65 8.975 19.65 20.047z"/><path d="M22.343 18.159s-2.468-3.196-7.132-.107c0 0-2.521 1.653-3.34 5.385-.53 2.413.044 5.989.412 7.18 0 0 .78 3.413 4.017 5.929 3.237 2.516 6.165 2.384 7.71 2.398 1.545.015 4.488-.427 6.444-1.795 1.957-1.368 3.605-2.487 5.105-5.135 1.501-2.648 1.486-5.488 1.545-7.533s-.706-4.502-1.972-6.341c-1.265-1.839-3.266-2.869-3.84-3.09s-1.457-.456-2.148-.471c-.692-.015-1.589.059-2.163.309-.574.25-1.398.692-1.913 1.354-.515.662-.809 1.265-.971 1.795s-.265 1.295-.191 1.53c.074.235.074.103.074.103s.692-2.163 1.795-3.149c1.103-.986 1.917-.97 2.604-1.03.693-.061 2.398.471 2.531.53.132.059 1.309.692 2.03 1.457.721.765 1.324 1.442 1.883 2.693.559 1.251.868 3.207.853 4.385-.015 1.177-.074 2.869-.544 4.502-.471 1.633-1.103 2.766-1.927 3.737-.824.971-1.515 1.663-3.06 2.796-1.545 1.133-3.487 1.604-4.12 1.692-.633.088-3.384.53-5.812-.294s-3.546-1.957-5.017-3.708-1.97-5.151-2.001-5.62c-.063-.962-.261-1.674.044-3.987.237-1.797 1.157-2.909 1.262-3.143.12-.267 1.078-1.447 1.769-1.859.692-.412 1.439-.91 2.545-1.03.883-.096 1.227-.022 1.766.059.585.088 1.206.397 1.251.397l.504.166.007-.105zm6.291-.309c.188.118 1.811 1.073 2.696 2.711.942 1.744 1.067 2.987 1.118 3.288.051.302.228 2.236-.074 3.553s-.596 2.281-1.464 3.759c-.868 1.479-1.162 1.95-1.162 1.95s-.022.154.037.221c.059.066.191.044.287 0s1.126-.544 2.406-2.825c1.28-2.281 1.251-4.267 1.265-5.319.015-1.052-.309-2.862-1.126-4.421-.817-1.56-1.964-2.273-2.163-2.435-.199-.162-.956-.58-1.464-.603-.356-.016-.346 0-.346 0-.084.015-.043.1-.01.121zm-10.977-4.509s.044.188 1.302 1.015c1.258.828 1.225.883 1.468 1.059.243.177.684.53 1.313 1.302.629.772.96 1.556 1.07 1.699s.806 1.778 1.004 2.03c.121.154.055.171.188.199.153.032.096-.423 0-.75s-.497-2.097-.872-2.681-.657-1.219-.85-1.435c-.406-.453-1.237-1.479-1.92-2.019-.635-.502-1.49-1.335-2.008-1.545-.519-.21-.585.066-.618.232-.032.165-.265.688-.077.894zm-.072.96 5.755.209s1.755-1.424 2.03-1.843.728-.585 1.026-2.185c.298-1.6-.872-2.097-.872-2.108s-1.015-.673-1.71-.088c-.695.585-1.203 1.964-1.203 1.964s-.265.717-.651 2.295c-.386 1.578-.463 2.24-.463 2.24l-.055.276-1.029-.761.008-.554-.008.056s.411-3.066 1.416-5.107c1.004-2.041 2.604-1.975 2.637-1.975.033 0 1.015-.044 1.964.684s1.313 1.666 1.269 2.681c-.044 1.015-.386 2.108-1.203 2.957-.817.85-1.887 1.766-3.112 2.317l-1.058.476-.207-.267s1.221-1.059 1.287-1.092" fill="#AFAFAF"/></svg>