<svg xmlns="http://www.w3.org/2000/svg" width="48" height="48" viewBox="0 0 48 48"><path fill-opacity=".22" d="M47.907 23.989c0 13.243-10.716 23.98-23.933 23.98s-23.933-10.737-23.933-23.98 10.715-23.98 23.933-23.98 23.933 10.736 23.933 23.98z" opacity=".323"/><path fill="#1A1A1A" fill-opacity=".195" d="M47.023 24.104c0 12.919-10.369 23.394-23.158 23.394s-23.158-10.474-23.158-23.394 10.368-23.394 23.158-23.394 23.158 10.473 23.158 23.394z" opacity=".532"/><path fill="#fff" stroke="#000" stroke-width=".4" stroke-opacity=".308" d="M46.103 24.059c0 12.426-9.975 22.499-22.279 22.499s-22.28-10.073-22.28-22.499c0-12.426 9.975-22.499 22.279-22.499 3.076 0 6.007.63 8.672 1.768s5.066 2.786 7.082 4.822 3.647 4.46 4.775 7.152c1.127 2.691 1.751 5.651 1.751 8.757z"/><path fill="#59f" d="M43.473 24.059c0 11.072-8.797 20.047-19.65 20.047s-19.65-8.975-19.65-20.047 8.797-20.047 19.65-20.047 19.65 8.975 19.65 20.047z"/><g fill="#45D64C"><path d="M24.004 19.502c3.7-1.921.345-4.94.011-5.227l-.017-.014-.017.014c-.333.287-3.675 3.295-.006 5.217M24.005 13.377c4.426-2.297.412-5.908.014-6.251l-.02-.017-.02.017c-.398.343-4.395 3.941-.007 6.239M27.587 21.286c5.357.544 3.868-5.093 3.712-5.639l-.008-.027-.028.004c-.562.075-6.302.959-3.698 5.632M32.959 27.437c1.79 5.078 6.255 1.331 6.683.957l.021-.019-.015-.024c-.307-.477-3.552-5.293-6.67-.947M33.425 20.115c4.473 2.998 5.808-2.677 5.926-3.232l.006-.028-.026-.01c-.531-.198-6.013-2.116-5.911 3.233M28.183 15.003c4.586-.524 2.309-4.972 2.078-5.401l-.012-.022-.023.008c-.457.165-5.103 1.955-2.067 5.393M24.004 25.502c3.7-1.921.345-4.94.011-5.227l-.017-.014-.017.014c-.333.287-3.675 3.295-.006 5.217M31.514 29.839c-1.66 3.052 2.066 3.572 2.43 3.615l.018.002.005-.018c.096-.353 1.001-3.989-2.429-3.605M32.673 15.912c4.141.487 3.058-3.895 2.943-4.32l-.006-.021-.022.002c-.436.051-4.891.665-2.932 4.314M35.653 23.568c2.218 3.53 4.951-.061 5.21-.417l.013-.018-.015-.015c-.313-.308-3.585-3.392-5.199.422M20.436 21.263c-5.357.544-3.868-5.093-3.712-5.639l.008-.027.028.004c.562.075 6.302.959 3.698 5.632M15.064 27.415c-1.79 5.078-6.255 1.331-6.683.957l-.021-.02.015-.024c.307-.477 3.552-5.293 6.67-.947M14.599 20.092c-4.473 2.998-5.808-2.677-5.926-3.232l-.006-.028.026-.01c.531-.198 6.013-2.116 5.911 3.233M19.84 14.98c-4.586-.524-2.309-4.972-2.078-5.401l.011-.021.023.008c.457.165 5.103 1.955 2.067 5.393M16.509 29.816c1.66 3.052-2.066 3.572-2.43 3.615l-.018.002-.005-.018c-.096-.353-1.001-3.99 2.429-3.605M15.35 15.889c-4.141.487-3.058-3.895-2.943-4.32l.006-.021.022.002c.436.051 4.891.665 2.932 4.314M12.37 23.546c-2.218 3.53-4.951-.061-5.21-.417l-.013-.018.015-.015c.313-.308 3.585-3.392 5.199.422"/></g><path fill="#F9F7F8" d="M34.348 22.524s-5.393.007-6.002 0c-.42-.005-.588.336-.588.336s-3.459 5.809-3.599 5.996l-.134.075-.134-.075c-.144-.149-3.599-5.996-3.599-5.996s-.156-.34-.588-.336c-.608.007-6.002 0-6.002 0s-.401-.014-.188.264l.251.345 7.009 10.429s.189.126.189.651v6.463s-.021.231.42.231h5.283c.441 0 .42-.231.42-.231v-6.463c0-.525.189-.651.189-.651l7.009-10.429.259-.345c.226-.305-.195-.264-.195-.264z"/></svg>